# xmcd
#
# Track frame offsets:
#	150
#	22156
#	41582
#	60400
#	79592
#	96774
#	118249
#	141633
#	162590
#	190243
#
# Disc length: 2849 seconds
#
# Revision: 0
# Processed by: cddbd v1.5.2PL0 Copyright (c) Steve Scherf et al.
# Submitted via: EZCDAudioConverter 1.3.4.1
#
DISCID=8d0b1f0a
DTITLE=Robert Plant - Shaken N' Stirred
DYEAR=1985
DGENRE=
TTITLE0=Hip To Hoo
TTITLE1=Kallalou Kallalou
TTITLE2=Too Loud
TTITLE3=Trouble Your Money
TTITLE4=Pink And Black
TTITLE5=Little By Little
TTITLE6=Doo Doo A Do Do
TTITLE7=Easily Lead
TTITLE8=Sixes And Sevens
TTITLE9=Little By Little [Remix]
EXTD=
EXTT0=
EXTT1=
EXTT2=
EXTT3=
EXTT4=
EXTT5=
EXTT6=
EXTT7=
EXTT8=
EXTT9=
PLAYORDER=
